<svg width="228" height="57" viewBox="0 0 228 57" fill="none" xmlns="http://www.w3.org/2000/svg">
<path d="M213 28.5C213 42.098 202.188 53 189 53C175.812 53 165 42.098 165 28.5C165 14.902 175.812 4 189 4C202.188 4 213 14.902 213 28.5Z" stroke="#00B68A" stroke-width="8"/>
<path d="M205.39 28.5L180.805 42.9478L180.805 14.0522L205.39 28.5Z" fill="#00A3FF"/>
<path d="M21.492 22.864C21.492 24.328 21.156 25.672 20.484 26.896C19.812 28.096 18.78 29.068 17.388 29.812C15.996 30.556 14.268 30.928 12.204 30.928H8.388V40H2.232V14.728H12.204C14.22 14.728 15.924 15.076 17.316 15.772C18.708 16.468 19.752 17.428 20.448 18.652C21.144 19.876 21.492 21.28 21.492 22.864ZM11.736 26.032C12.912 26.032 13.788 25.756 14.364 25.204C14.94 24.652 15.228 23.872 15.228 22.864C15.228 21.856 14.94 21.076 14.364 20.524C13.788 19.972 12.912 19.696 11.736 19.696H8.388V26.032H11.736ZM50.3288 19.696C52.8248 19.696 54.8048 20.452 56.2688 21.964C57.7568 23.476 58.5008 25.576 58.5008 28.264V40H52.3808V29.092C52.3808 27.796 52.0328 26.8 51.3368 26.104C50.6648 25.384 49.7288 25.024 48.5288 25.024C47.3288 25.024 46.3808 25.384 45.6848 26.104C45.0128 26.8 44.6768 27.796 44.6768 29.092V40H38.5568V29.092C38.5568 27.796 38.2088 26.8 37.5128 26.104C36.8408 25.384 35.9048 25.024 34.7048 25.024C33.5048 25.024 32.5568 25.384 31.8608 26.104C31.1888 26.8 30.8528 27.796 30.8528 29.092V40H24.6968V19.912H30.8528V22.432C31.4768 21.592 32.2928 20.932 33.3008 20.452C34.3088 19.948 35.4488 19.696 36.7208 19.696C38.2328 19.696 39.5768 20.02 40.7528 20.668C41.9528 21.316 42.8888 22.24 43.5608 23.44C44.2568 22.336 45.2048 21.436 46.4048 20.74C47.6048 20.044 48.9128 19.696 50.3288 19.696ZM71.9502 40.288C69.9822 40.288 68.2062 39.868 66.6222 39.028C65.0622 38.188 63.8262 36.988 62.9142 35.428C62.0262 33.868 61.5822 32.044 61.5822 29.956C61.5822 27.892 62.0382 26.08 62.9502 24.52C63.8622 22.936 65.1102 21.724 66.6942 20.884C68.2782 20.044 70.0542 19.624 72.0222 19.624C73.9902 19.624 75.7662 20.044 77.3502 20.884C78.9342 21.724 80.1822 22.936 81.0942 24.52C82.0062 26.08 82.4622 27.892 82.4622 29.956C82.4622 32.02 81.9942 33.844 81.0582 35.428C80.1462 36.988 78.8862 38.188 77.2782 39.028C75.6942 39.868 73.9182 40.288 71.9502 40.288ZM71.9502 34.96C73.1262 34.96 74.1222 34.528 74.9382 33.664C75.7782 32.8 76.1982 31.564 76.1982 29.956C76.1982 28.348 75.7902 27.112 74.9742 26.248C74.1822 25.384 73.1982 24.952 72.0222 24.952C70.8222 24.952 69.8262 25.384 69.0342 26.248C68.2422 27.088 67.8462 28.324 67.8462 29.956C67.8462 31.564 68.2302 32.8 68.9982 33.664C69.7902 34.528 70.7742 34.96 71.9502 34.96ZM94.7641 34.24L99.1201 19.912H105.672L98.5441 40H90.9481L83.8201 19.912H90.4081L94.7641 34.24ZM111.359 17.824C110.279 17.824 109.391 17.512 108.695 16.888C108.023 16.24 107.687 15.448 107.687 14.512C107.687 13.552 108.023 12.76 108.695 12.136C109.391 11.488 110.279 11.164 111.359 11.164C112.415 11.164 113.279 11.488 113.951 12.136C114.647 12.76 114.995 13.552 114.995 14.512C114.995 15.448 114.647 16.24 113.951 16.888C113.279 17.512 112.415 17.824 111.359 17.824ZM114.419 19.912V40H108.263V19.912H114.419ZM137.816 29.632C137.816 30.208 137.78 30.808 137.708 31.432H123.776C123.872 32.68 124.268 33.64 124.964 34.312C125.684 34.96 126.56 35.284 127.592 35.284C129.128 35.284 130.196 34.636 130.796 33.34H137.348C137.012 34.66 136.4 35.848 135.512 36.904C134.648 37.96 133.556 38.788 132.236 39.388C130.916 39.988 129.44 40.288 127.808 40.288C125.84 40.288 124.088 39.868 122.552 39.028C121.016 38.188 119.816 36.988 118.952 35.428C118.088 33.868 117.656 32.044 117.656 29.956C117.656 27.868 118.076 26.044 118.916 24.484C119.78 22.924 120.98 21.724 122.516 20.884C124.052 20.044 125.816 19.624 127.808 19.624C129.752 19.624 131.48 20.032 132.992 20.848C134.504 21.664 135.68 22.828 136.52 24.34C137.384 25.852 137.816 27.616 137.816 29.632ZM131.516 28.012C131.516 26.956 131.156 26.116 130.436 25.492C129.716 24.868 128.816 24.556 127.736 24.556C126.704 24.556 125.828 24.856 125.108 25.456C124.412 26.056 123.98 26.908 123.812 28.012H131.516ZM149.236 40.288C147.484 40.288 145.924 39.988 144.556 39.388C143.188 38.788 142.108 37.972 141.316 36.94C140.524 35.884 140.08 34.708 139.984 33.412H146.068C146.14 34.108 146.464 34.672 147.04 35.104C147.616 35.536 148.324 35.752 149.164 35.752C149.932 35.752 150.52 35.608 150.928 35.32C151.36 35.008 151.576 34.612 151.576 34.132C151.576 33.556 151.276 33.136 150.676 32.872C150.076 32.584 149.104 32.272 147.76 31.936C146.32 31.6 145.12 31.252 144.16 30.892C143.2 30.508 142.372 29.92 141.676 29.128C140.98 28.312 140.632 27.22 140.632 25.852C140.632 24.7 140.944 23.656 141.568 22.72C142.216 21.76 143.152 21.004 144.376 20.452C145.624 19.9 147.1 19.624 148.804 19.624C151.324 19.624 153.304 20.248 154.744 21.496C156.208 22.744 157.048 24.4 157.264 26.464H151.576C151.48 25.768 151.168 25.216 150.64 24.808C150.136 24.4 149.464 24.196 148.624 24.196C147.904 24.196 147.352 24.34 146.968 24.628C146.584 24.892 146.392 25.264 146.392 25.744C146.392 26.32 146.692 26.752 147.292 27.04C147.916 27.328 148.876 27.616 150.172 27.904C151.66 28.288 152.872 28.672 153.808 29.056C154.744 29.416 155.56 30.016 156.256 30.856C156.976 31.672 157.348 32.776 157.372 34.168C157.372 35.344 157.036 36.4 156.364 37.336C155.716 38.248 154.768 38.968 153.52 39.496C152.296 40.024 150.868 40.288 149.236 40.288Z" fill="#00A3FF"/>
</svg>
