<svg width="22" height="23" viewBox="0 0 22 23" fill="none" xmlns="http://www.w3.org/2000/svg">
<g clip-path="url(#clip0_7_46)">
<path d="M20.223 3.26695C19.071 2.06259 17.5459 1.40433 15.9182 1.40433C14.2904 1.40433 12.7607 2.06746 11.6087 3.27183L11.007 3.90083L10.396 3.26207C9.24403 2.05771 7.70959 1.3897 6.08186 1.3897C4.4588 1.3897 2.92902 2.05283 1.78168 3.25232C0.629677 4.45669 -0.00462317 6.056 4.07974e-05 7.75772C4.07974e-05 9.45943 0.639005 11.0539 1.79101 12.2582L10.5499 21.4153C10.6712 21.5421 10.8344 21.6103 10.993 21.6103C11.1516 21.6103 11.3148 21.547 11.4361 21.4202L20.2137 12.2777C21.3657 11.0734 22 9.47406 22 7.77234C22.0047 6.07063 21.375 4.47131 20.223 3.26695ZM19.3275 11.3464L10.993 20.0257L2.67716 11.3318C1.76302 10.3761 1.25931 9.10836 1.25931 7.75772C1.25931 6.40707 1.75836 5.13932 2.6725 4.18851C3.58197 3.23769 4.7946 2.71109 6.08186 2.71109C7.37378 2.71109 8.59108 3.23769 9.50521 4.19338L10.5593 5.29535C10.8065 5.55378 11.2029 5.55378 11.4501 5.29535L12.4948 4.20314C13.409 3.24745 14.6263 2.72084 15.9135 2.72084C17.2008 2.72084 18.4134 3.24745 19.3275 4.19826C20.2417 5.15395 20.7407 6.4217 20.7407 7.77234C20.7454 9.12299 20.2417 10.3907 19.3275 11.3464Z" fill="#00A3FF"/>
</g>
<defs>
<clipPath id="clip0_7_46">
<rect width="22" height="23" fill="white"/>
</clipPath>
</defs>
</svg>
